HIERARCHY
ROOT root
{
	OFFSET	0	13.1	24.9
	CHANNELS 6  Xposition Yposition Zposition Xrotation Yrotation Zrotation
	JOINT spine_1
	{
		OFFSET	0	9.99999	0
		CHANNELS 3  Xrotation Yrotation Zrotation
		JOINT spine_2
		{
			OFFSET	0	112	-10
			CHANNELS 3  Xrotation Yrotation Zrotation
			JOINT spine_3
			{
				OFFSET	0	206.5	19.3
				CHANNELS 3  Xrotation Yrotation Zrotation
				JOINT spine_4
				{
					OFFSET	0	110.4	14.6
					CHANNELS 3  Xrotation Yrotation Zrotation
					JOINT neck_1
					{
						OFFSET	0	71.8	-50.3
						CHANNELS 3  Xrotation Yrotation Zrotation
						JOINT neck_2
						{
							OFFSET	0	86.2	-25.8
							CHANNELS 3  Xrotation Yrotation Zrotation
							JOINT head_ee
							{
								OFFSET	0	179.8	-8.7
								CHANNELS 3  Xrotation Yrotation Zrotation
								End Site
								{
									OFFSET	1	0	0
								}
							}
						}
					}
					JOINT left_clavicle
					{
						OFFSET	-43.2	22.4	-70.8
						CHANNELS 3  Xrotation Yrotation Zrotation
						JOINT left_shoulder
						{
							OFFSET	-93.9	-5.79999	48.7
							CHANNELS 3  Xrotation Yrotation Zrotation
							JOINT left_elbow
							{
								OFFSET	-291.4	-30.8	15.2
								CHANNELS 3  Xrotation Yrotation Zrotation
								JOINT left_lowarm_twist
								{
									OFFSET	-110.7	-3.89999	13.6
									CHANNELS 3  Xrotation Yrotation Zrotation
									JOINT left_hand
									{
										OFFSET	-110.7	-3.89999	13.6
										CHANNELS 3  Xrotation Yrotation Zrotation
										JOINT left_ee
										{
											OFFSET	-80.8	-5.10001	12.1
											CHANNELS 3  Xrotation Yrotation Zrotation
											End Site
											{
												OFFSET	1	0	0
											}
										}
									}
								}
							}
						}
					}
					JOINT right_clavicle
					{
						OFFSET	43.2	22.4	-70.8
						CHANNELS 3  Xrotation Yrotation Zrotation
						JOINT right_shoulder
						{
							OFFSET	93.9	-5.79999	48.7
							CHANNELS 3  Xrotation Yrotation Zrotation
							JOINT right_elbow
							{
								OFFSET	291.4	-30.8	15.2
								CHANNELS 3  Xrotation Yrotation Zrotation
								JOINT right_lowarm_twist
								{
									OFFSET	110.7	-3.89999	13.6
									CHANNELS 3  Xrotation Yrotation Zrotation
									JOINT right_hand
									{
										OFFSET	110.7	-3.89999	13.6
										CHANNELS 3  Xrotation Yrotation Zrotation
										JOINT right_ee
										{
											OFFSET	80.8	-5.10001	12.1
											CHANNELS 3  Xrotation Yrotation Zrotation
											End Site
											{
												OFFSET	1	0	0
											}
										}
									}
								}
							}
						}
					}
				}
			}
		}
	}
	JOINT left_hip
	{
		OFFSET	-82.8	-127.5	0.300001
		CHANNELS 3  Xrotation Yrotation Zrotation
		JOINT left_knee
		{
			OFFSET	-28.2	-396.7	2.2
			CHANNELS 3  Xrotation Yrotation Zrotation
			JOINT left_ankle
			{
				OFFSET	-11.7	-411.3	35.4
				CHANNELS 3  Xrotation Yrotation Zrotation
				JOINT left_toes
				{
					OFFSET	0	-60	-88.6
					CHANNELS 3  Xrotation Yrotation Zrotation
					JOINT left_foot_ee
					{
						OFFSET	-22.5	-16.5	-42.2
						CHANNELS 3  Xrotation Yrotation Zrotation
						End Site
						{
							OFFSET	1	0	0
						}
					}
				}
			}
		}
	}
	JOINT right_hip
	{
		OFFSET	82.8	-127.5	0.300001
		CHANNELS 3  Xrotation Yrotation Zrotation
		JOINT right_knee
		{
			OFFSET	28.2	-396.7	2.2
			CHANNELS 3  Xrotation Yrotation Zrotation
			JOINT right_ankle
			{
				OFFSET	11.7	-411.3	35.4
				CHANNELS 3  Xrotation Yrotation Zrotation
				JOINT right_toes
				{
					OFFSET	0	-60	-88.6
					CHANNELS 3  Xrotation Yrotation Zrotation
					JOINT right_foot_ee
					{
						OFFSET	22.5	-16.5	-42.2
						CHANNELS 3  Xrotation Yrotation Zrotation
						End Site
						{
							OFFSET	1	0	0
						}
					}
				}
			}
		}
	}
}
MOTION
Frames: 12
Frame Time: 0.02
2778.91659089 683.595 -1766.14933179 6.80174730024 36.3505970438 -7.07436610955 -3.04138 0.568361 0.919721 -3.04105 0.508688 0.95402 -3.03171 0.24147 1.05385 -3.03303 0.404867 1.00249 -20.8195 16.8996 10.2078 -21.7426 27.6286 17.0286 -0.0 0.0 -0.0 7.87359 8.19402 15.0551 -9.74043 -20.2349 53.6419 3.70281 -61.3856 2.19844 -40.0166 -2.95293 4.06185 -1.46294 13.5835 -3.58364 -0.0 0.0 -0.0 10.4961 6.35177 -20.9111 -24.4178 22.0053 -52.445 0.526519 14.6185 -0.0675356 -1.4776 0.0543999 -0.180844 1.85108 -28.7505 -21.7792 0.0 0.0 0.0 -12.6829 17.1471 10.5286 4.76716 -0.225458 -0.696444 24.5693 -7.01472 -3.37643 -8.27271 0.0 0.0 -0.0 0.0 -0.0 1.05351 32.7746 7.59442 -42.0128 0.599762 -6.27773 4.17232 9.28736 0.633339 -16.4096 0.0 0.0 0.0 0.0 0.0 
2770.70958842 684.499 -1746.47359566 6.38157875756 38.6243138395 -6.76465008709 -2.72746 0.556626 0.946749 -2.7271 0.495257 0.980246 -2.71776 0.227536 1.07442 -2.71916 0.394356 1.02501 -20.5842 16.6782 9.60122 -21.5072 27.4507 16.309 -0.0 0.0 -0.0 7.67304 8.60094 14.6647 -10.8938 -20.2918 53.1872 3.80137 -62.013 2.28522 -40.5426 -3.00905 4.09935 -1.20917 13.3201 -2.1124 -0.0 0.0 -0.0 10.0919 8.62707 -20.0456 -23.978 22.5691 -54.5402 0.522544 14.5128 -0.0665358 1.17798 -0.0400131 0.145126 2.20054 -27.591 -23.6177 0.0 0.0 0.0 -12.5074 16.3819 10.4394 4.81607 -0.228071 -0.70349 23.1895 -5.2817 -3.18881 -7.46404 0.0 0.0 -0.0 0.0 -0.0 3.51035 27.0082 6.81412 -38.5025 0.374259 -5.78751 12.2629 6.90776 1.78691 -15.4801 0.0 0.0 0.0 0.0 0.0 
2756.81023736 688.349 -1720.997743 6.01139283494 42.4020065088 -7.07135031474 -2.45864 0.462367 1.07083 -2.45808 0.393294 1.09808 -2.44958 0.104204 1.16172 -2.45135 0.286356 1.13069 -19.8009 16.2772 9.56846 -20.5716 26.5475 15.8398 -0.0 0.0 -0.0 7.5698 10.7156 14.3627 -12.141 -21.0702 53.4525 3.91893 -62.7289 2.38937 -41.0954 -3.0684 4.13822 -1.32217 13.4367 -2.7683 -0.0 0.0 -0.0 10.3801 8.16906 -20.6743 -24.153 22.3576 -53.955 0.501895 13.9622 -0.0614574 2.05931 -0.0679918 0.25422 2.2327 -29.5567 -24.2262 0.0 0.0 0.0 -11.9851 16.5261 11.2106 3.7213 -0.171034 -0.545263 23.2928 -6.3099 -3.21408 -10.4257 0.0 0.0 -0.0 0.0 -0.0 3.39882 26.5416 6.64557 -34.2364 0.141369 -5.17491 16.6802 5.55817 2.37122 -14.3044 0.0 0.0 0.0 0.0 0.0 
2721.14896843 677.849 -1647.64930964 9.0857495262 54.0193694484 -12.060277332 -2.1997 0.378212 1.41798 -2.19863 0.287226 1.43916 -2.19 -0.0777109 1.46548 -2.19297 0.154685 1.45937 -15.9926 16.6698 7.37169 -16.6376 27.771 12.944 -0.0 0.0 -0.0 6.73704 13.9679 12.737 -14.1684 -22.5853 53.9162 4.08343 -63.6753 2.53621 -42.5794 -3.22957 4.2397 -1.25903 13.9128 -2.15775 -0.0 0.0 -0.0 10.5735 9.8795 -21.0943 -22.7375 23.3789 -55.9476 0.391168 10.9667 -0.0375506 7.02483 -0.194015 0.875802 2.91589 -29.9616 -28.4802 0.0 0.0 0.0 -16.7425 16.7929 14.4798 1.77122 -0.0769799 -0.260881 30.9245 -0.192413 -4.00962 -11.3619 0.0 0.0 -0.0 0.0 -0.0 5.20375 19.2424 5.93773 -24.4758 -0.215723 -3.72135 34.9655 0.000202558 4.41582 -10.3444 0.0 0.0 0.0 0.0 0.0 
2711.15647204 675.461 -1597.25445794 11.5322699768 61.539552661 -15.382205595 -2.03482 0.382802 1.61621 -2.03341 0.279197 1.63729 -2.02371 -0.129709 1.65585 -2.02751 0.133392 1.65555 -15.5772 17.316 7.42883 -16.2532 28.9046 13.1358 -0.0 0.0 -0.0 6.04655 13.5892 11.5886 -15.5562 -24.119 54.0189 3.679 -61.2302 2.17755 -42.0459 -3.17132 4.20369 -1.0433 15.3524 -0.177316 -0.0 0.0 -0.0 11.284 12.0018 -22.6505 -21.007 23.6324 -56.9341 0.346746 9.74667 -0.0295642 11.0817 -0.256708 1.39011 3.09929 -29.8872 -29.6261 0.0 0.0 0.0 -19.3637 18.1577 15.5367 3.79355 -0.174704 -0.555737 36.1875 4.71844 -4.51263 -13.4112 0.0 0.0 -0.0 0.0 -0.0 7.99508 13.8286 3.78292 -14.9294 -0.321565 -2.26206 28.6471 -3.77789 3.74527 -8.97389 0.0 0.0 0.0 0.0 0.0 
2712.12594802 675.641 -1574.9822223 12.823002662 64.1675891707 -16.9474616997 -2.08856 0.386287 1.7038 -2.08699 0.277103 1.72492 -2.07674 -0.15479 1.74016 -2.08094 0.121936 1.74277 -15.7922 17.1304 7.65634 -16.4489 28.458 13.329 -0.0 0.0 -0.0 5.54918 13.1934 10.7608 -16.295 -24.8563 54.2996 3.46974 -59.7946 1.99538 -41.8743 -3.15266 4.192 -1.03653 15.8202 0.0697732 -0.0 0.0 -0.0 11.8118 12.8962 -23.8258 -19.6815 23.7922 -56.7924 0.325832 9.16909 -0.0261275 12.271 -0.268169 1.54159 2.85698 -29.6212 -28.0583 0.0 0.0 0.0 -20.3329 18.7911 15.816 4.98403 -0.23709 -0.72767 37.2311 5.91691 -4.6102 -14.1783 0.0 0.0 -0.0 0.0 -0.0 10.0776 12.1417 2.40458 -10.3894 -0.286392 -1.56653 26.5001 -3.95759 3.50605 -9.11169 0.0 0.0 0.0 0.0 0.0 
2703.89824489 674.65 -1557.35813395 13.3239160428 67.2471155778 -17.0986459512 -2.092 0.39577 1.76035 -2.09032 0.282971 1.78196 -2.07948 -0.16319 1.79688 -2.08397 0.122595 1.80011 -15.8929 16.8944 7.7621 -16.5216 27.9623 13.3575 -0.0 0.0 -0.0 5.38418 13.3846 10.4797 -16.7382 -25.31 54.6552 3.32515 -58.7246 1.87111 -42.0475 -3.1715 4.20381 -1.03724 16.1475 0.208945 -0.0 0.0 -0.0 12.2027 13.5414 -24.7027 -18.5111 23.89 -56.9952 0.293374 8.26903 -0.021207 13.1658 -0.274717 1.65569 2.68854 -29.4975 -26.9902 0.0 0.0 0.0 -20.9809 18.5618 15.8551 5.73705 -0.278395 -0.835754 36.9211 6.6141 -4.58228 -14.8795 0.0 0.0 -0.0 0.0 -0.0 12.0837 10.9162 1.24537 -7.15163 -0.22771 -1.07323 24.7684 -3.56023 3.3087 -9.0505 0.0 0.0 0.0 0.0 0.0 
2702.91157923 671.955 -1549.61469991 14.8170805024 69.6276176037 -18.6307082234 -2.05582 0.337283 1.76867 -2.05411 0.224073 1.78654 -2.04516 -0.220369 1.787 -2.04961 0.0645735 1.79938 -15.0499 16.8004 7.07058 -15.6375 28.0193 12.4537 -0.0 0.0 -0.0 5.2506 12.9255 10.2612 -17.4589 -25.4498 54.3617 3.12261 -57.1061 1.69948 -41.8615 -3.15128 4.19113 -1.12041 16.4051 -0.187373 -0.0 0.0 -0.0 12.5192 13.9885 -25.4184 -16.7579 24.325 -56.8589 0.298153 8.40182 -0.0218998 14.6403 -0.281619 1.8439 2.52339 -29.3317 -25.9442 0.0 0.0 0.0 -21.6784 17.6406 14.9651 6.4025 -0.316079 -0.930818 35.8082 6.57643 -4.47705 -15.4811 0.0 0.0 -0.0 0.0 -0.0 14.5668 10.4354 0.742598 -5.59329 -0.189548 -0.837138 23.7251 -3.35543 3.18725 -9.57928 0.0 0.0 0.0 0.0 0.0 
2700.69240014 671.955 -1558.7776038 14.0951351532 68.5578575643 -17.8579144001 -2.05582 0.337283 1.76867 -2.05411 0.224073 1.78654 -2.04516 -0.220369 1.787 -2.04961 0.0645735 1.79938 -15.0499 16.8004 7.07058 -15.6375 28.0193 12.4537 -0.0 0.0 -0.0 5.2506 12.9255 10.2612 -17.4589 -25.4498 54.3617 3.12261 -57.1061 1.69948 -41.8615 -3.15128 4.19113 -1.12041 16.4051 -0.187373 -0.0 0.0 -0.0 12.5192 13.9885 -25.4184 -16.7579 24.325 -56.8589 0.298153 8.40182 -0.0218998 14.6403 -0.281619 1.8439 2.52339 -29.3317 -25.9442 0.0 0.0 0.0 -21.6784 17.6406 14.9651 6.4025 -0.316079 -0.930818 35.8082 6.57643 -4.47705 -15.4811 0.0 0.0 -0.0 0.0 -0.0 14.5668 10.4354 0.742598 -5.59329 -0.189548 -0.837138 23.7251 -3.35543 3.18725 -9.57928 0.0 0.0 0.0 0.0 0.0 
2695.37300206 664.131 -1538.96304431 19.0274806365 74.4671864982 -22.8803080067 -2.10754 0.330139 1.67949 -2.106 0.222616 1.69708 -2.0976 -0.201417 1.69973 -2.10162 0.0695107 1.71021 -14.9924 15.8985 5.78156 -15.5726 27.0303 10.9191 -0.0 0.0 -0.0 5.02763 12.9836 9.8848 -19.0241 -26.176 54.4901 2.94826 -55.5893 1.55434 -41.6589 -3.12929 4.17724 -1.19999 16.4326 -0.662296 -0.0 0.0 -0.0 12.8923 15.0278 -26.2516 -13.665 25.2309 -56.7918 0.332397 9.35061 -0.0271838 17.2402 -0.281983 2.17593 2.33248 -28.9103 -24.6986 0.0 0.0 0.0 -21.5379 14.2763 14.0162 6.41942 -0.317052 -0.933229 33.2947 4.65491 -4.23069 -16.4735 0.0 0.0 -0.0 0.0 -0.0 18.3732 9.38204 -0.861516 -2.52051 -0.0955421 -0.374985 22.9677 -2.41997 3.10095 -10.201 0.0 0.0 0.0 0.0 0.0 
2692.42929482 664.131 -1550.37492755 17.5627521333 73.1821473342 -21.3553092549 -2.10754 0.330139 1.67949 -2.106 0.222616 1.69708 -2.0976 -0.201417 1.69973 -2.10162 0.0695107 1.71021 -14.9924 15.8985 5.78156 -15.5726 27.0303 10.9191 -0.0 0.0 -0.0 5.02763 12.9836 9.8848 -19.0241 -26.176 54.4901 2.94826 -55.5893 1.55434 -41.6589 -3.12929 4.17724 -1.19999 16.4326 -0.662296 -0.0 0.0 -0.0 12.8923 15.0278 -26.2516 -13.665 25.2309 -56.7918 0.332397 9.35061 -0.0271838 17.2402 -0.281983 2.17593 2.33248 -28.9103 -24.6986 0.0 0.0 0.0 -21.5379 14.2763 14.0162 6.41942 -0.317052 -0.933229 33.2947 4.65491 -4.23069 -16.4735 0.0 0.0 -0.0 0.0 -0.0 18.3732 9.38204 -0.861516 -2.52051 -0.0955421 -0.374985 22.9677 -2.41997 3.10095 -10.201 0.0 0.0 0.0 0.0 0.0 
2689.24532997 664.131 -1564.19567437 16.0767564778 71.6230399105 -19.7965147026 -2.10754 0.330139 1.67949 -2.106 0.222616 1.69708 -2.0976 -0.201417 1.69973 -2.10162 0.0695107 1.71021 -14.9924 15.8985 5.78156 -15.5726 27.0303 10.9191 -0.0 0.0 -0.0 5.02763 12.9836 9.8848 -19.0241 -26.176 54.4901 2.94826 -55.5893 1.55434 -41.6589 -3.12929 4.17724 -1.19999 16.4326 -0.662296 -0.0 0.0 -0.0 12.8923 15.0278 -26.2516 -13.665 25.2309 -56.7918 0.332397 9.35061 -0.0271838 17.2402 -0.281983 2.17593 2.33248 -28.9103 -24.6986 0.0 0.0 0.0 -21.5379 14.2763 14.0162 6.41942 -0.317052 -0.933229 33.2947 4.65491 -4.23069 -16.4735 0.0 0.0 -0.0 0.0 -0.0 18.3732 9.38204 -0.861516 -2.52051 -0.0955421 -0.374985 22.9677 -2.41997 3.10095 -10.201 0.0 0.0 0.0 0.0 0.0 
